<svg xmlns="http://www.w3.org/2000/svg" xmlns:xlink="http://www.w3.org/1999/xlink" fill="none" version="1.1" width="16" height="16" viewBox="0 0 16 16"><defs><clipPath id="master_svg0_17_1496"><rect x="0" y="0" width="16" height="16" rx="0"/></clipPath></defs><g clip-path="url(#master_svg0_17_1496)"><g><rect x="0" y="0" width="16" height="16" rx="0" fill="#FFFFFF" fill-opacity="0.009999999776482582" style="mix-blend-mode:passthrough"/></g><g><path d="M1.333333,13.333251953125L1.333333,8.666581953125Q1.333333,7.838157953125,1.9191197,7.252371653125Q2.504906,6.666584953125,3.33333,6.666584953125L12.6667,6.666584953125Q13.4951,6.666584953125,14.0809,7.252371653125Q14.6667,7.838158953125,14.6667,8.666581953125L14.6667,13.333251953125Q14.6667,14.161681953125,14.0809,14.747461953125Q13.4951,15.333251953125,12.6667,15.333251953125L3.33333,15.333251953125Q2.504907,15.333251953125,1.9191198,14.747461953125Q1.333333,14.161681953125,1.333333,13.333251953125ZM2.666667,13.333251953125Q2.666667,13.609391953125,2.861929,13.804651953125Q3.0571900000000003,13.999921953125,3.33333,13.999921953125L12.6667,13.999921953125Q12.9428,13.999921953125,13.1381,13.804651953125Q13.3333,13.609391953125,13.3333,13.333251953125L13.3333,8.666581953125Q13.3333,8.390441953125,13.1381,8.195180953125Q12.9428,7.999918953125,12.6667,7.999918953125L3.33333,7.999918953125Q3.0571900000000003,7.999918953125,2.861929,8.195180953125Q2.666667,8.390441953125,2.666667,8.666581953125L2.666667,13.333251953125Z" fill="#27CA44" fill-opacity="1"/></g><g><path d="M10.66650390625,4.666581953125L10.66650390625,7.333251953125L10.66817390625,7.333251953125Q10.66817390625,7.398751953125,10.68094390625,7.462981953125Q10.69372390625,7.527221953125,10.71879390625,7.587731953125Q10.74385390625,7.648251953125,10.78024390625,7.702701953125Q10.81663390625,7.757161953125,10.862943906249999,7.803481953125Q10.909253906250001,7.849791953125,10.96371390625,7.886181953125Q11.01817390625,7.922561953125,11.07868390625,7.947631953125Q11.13919390625,7.972691953125,11.20343390625,7.985471953125Q11.26767390625,7.998251953125,11.33317390625,7.998251953125Q11.39866390625,7.998251953125,11.46290390625,7.985471953125Q11.52714390625,7.972691953125,11.58765390625,7.947631953125Q11.64816390625,7.922561953125,11.70262390625,7.886181953125Q11.75708390625,7.849791953125,11.803393906250001,7.803481953125Q11.849713906249999,7.757161953125,11.88609390625,7.702701953125Q11.922483906250001,7.648251953125,11.94755390625,7.587731953125Q11.97261390625,7.527221953125,11.98539390625,7.462981953125Q11.998173906249999,7.398751953125,11.998173906249999,7.333251953125L11.99983390625,7.333251953125L11.99983390625,4.666581953125Q11.99983390625,3.0097319531249997,10.82825390625,1.838156953125Q9.656683906249999,0.666584953125,7.99983390625,0.666584953125Q6.34299390625,0.666584953125,5.17141690625,1.838156953125Q3.99983690625,3.0097319531249997,3.99983690625,4.666581953125L3.99983690625,7.333251953125L4.00150390625,7.333251953125Q4.00150390625,7.398751953125,4.01428190625,7.462981953125Q4.02705990625,7.527221953125,4.05212390625,7.587731953125Q4.07718890625,7.648251953125,4.11357690625,7.702701953125Q4.14996490625,7.757161953125,4.19627790625,7.803481953125Q4.24259090625,7.849791953125,4.29704990625,7.886181953125Q4.35150790625,7.922561953125,4.41201990625,7.947631953125Q4.47253090625,7.972691953125,4.53676890625,7.985471953125Q4.60100710625,7.998251953125,4.66650390625,7.998251953125Q4.73200070625,7.998251953125,4.79623890625,7.985471953125Q4.86047690625,7.972691953125,4.92098790625,7.947631953125Q4.98149990625,7.922561953125,5.03595790625,7.886181953125Q5.09041690625,7.849791953125,5.13672990625,7.803481953125Q5.18304290625,7.757161953125,5.21943090625,7.702701953125Q5.25581890625,7.648251953125,5.28088390625,7.587731953125Q5.30594790625,7.527221953125,5.31872590625,7.462981953125Q5.33150390625,7.398751953125,5.33150390625,7.333251953125L5.33317090625,7.333251953125L5.33317090625,4.666581953125Q5.33317090625,3.562021953125,6.11422390625,2.780971953125Q6.89527390625,1.999918953125,7.99983390625,1.999918953125Q9.10439390625,1.999918953125,9.88545390625,2.780971953125Q10.66650390625,3.562021953125,10.66650390625,4.666581953125Z" fill-rule="evenodd" fill="#27CA44" fill-opacity="1"/></g><g><path d="M7.335,10Q7.335,9.9345032,7.347778,9.870265Q7.360556,9.806027,7.38562,9.745516Q7.410685,9.685004,7.447073,9.630546Q7.483461,9.576087,7.529774,9.529774Q7.576087,9.483461,7.630546,9.447073Q7.685004,9.410685,7.745516,9.38562Q7.806027,9.360556,7.870265,9.347778Q7.9345032,9.335,8,9.335Q8.0654968,9.335,8.129735,9.347778Q8.193973,9.360556,8.254484,9.38562Q8.314996,9.410685,8.369454,9.447073Q8.423913,9.483461,8.470226,9.529774Q8.516539,9.576087,8.552927,9.630546Q8.589315,9.685004,8.61438,9.745516Q8.639444,9.806027,8.652222,9.870265Q8.665,9.9345032,8.665,10L8.666667,10L8.666667,12L8.665,12Q8.665,12.0655,8.652222,12.12973Q8.639444,12.19397,8.61438,12.254480000000001Q8.589315,12.315,8.552927,12.36945Q8.516539,12.42391,8.470226,12.47023Q8.423913,12.516539999999999,8.369454,12.55293Q8.314996,12.58931,8.254484,12.61438Q8.193973,12.63944,8.129735,12.65222Q8.0654968,12.665,8,12.665Q7.9345032,12.665,7.870265,12.65222Q7.806027,12.63944,7.745516,12.61438Q7.685004,12.58931,7.630546,12.55293Q7.576087,12.516539999999999,7.529774,12.47023Q7.483461,12.42391,7.447073,12.36945Q7.410685,12.315,7.38562,12.254480000000001Q7.360556,12.19397,7.347778,12.12973Q7.335,12.0655,7.335,12L7.333333,12L7.333333,10L7.335,10Z" fill-rule="evenodd" fill="#27CA44" fill-opacity="1"/></g></g></svg>