<svg xmlns="http://www.w3.org/2000/svg" xmlns:xlink="http://www.w3.org/1999/xlink" fill="none" version="1.1" width="115" height="40" viewBox="0 0 115 40"><g><g><rect x="0" y="0" width="115" height="40" rx="6" fill="#FFFFFF" fill-opacity="1"/><rect x="0.5" y="0.5" width="114" height="39" rx="5.5" fill-opacity="0" stroke-opacity="1" stroke="#EEEEEE" fill="none" stroke-width="1"/></g><g><g></g><g><g><path d="M67.00000354187011,20.20696059890747C67.00000354187011,19.595180598907472,66.94939354187012,18.98010459890747,66.84144354187012,18.37825059890747L58.18133354187012,18.37825059890747L58.18133354187012,21.843870598907472L63.14057354187012,21.843870598907472C62.934773541870115,22.96160059890747,62.27354354187012,23.950360598907473,61.30531354187012,24.57866059890747L61.30531354187012,26.827350598907472L64.26398354187012,26.827350598907472C66.00140354187012,25.259880598907472,67.00000354187011,22.94506059890747,67.00000354187011,20.20696059890747Z" fill="#4285F4" fill-opacity="1" style="mix-blend-mode:passthrough"/></g><g><path d="M58.181339013500214,28.999996839904785C60.657569013500215,28.999996839904785,62.74586901350021,28.203046839904786,64.26736901350021,26.827376839904787L61.308669013500214,24.578686839904783C60.48556901350021,25.127636839904785,59.42282901350021,25.438476839904787,58.18470901350021,25.438476839904787C55.78942901350021,25.438476839904787,53.758509013500216,23.854486839904787,53.02979901350022,21.724846839904785L49.976669013500214,21.724846839904785L49.976669013500214,24.042976839904785C51.53528901350021,27.082006839904786,54.70986901350021,28.999996839904785,58.181339013500214,28.999996839904785Z" fill="#34A853" fill-opacity="1" style="mix-blend-mode:passthrough"/></g><g><path d="M53.02643,21.724835102233886C52.64183,20.607105102233888,52.64183,19.396785102233885,53.02643,18.279055102233887L53.02643,15.960925102233887L49.976666,15.960925102233887C48.674445,18.503925102233886,48.674445,21.499965102233887,49.976666,24.042955102233886L53.02643,21.724835102233886Z" fill="#FBBC04" fill-opacity="1" style="mix-blend-mode:passthrough"/></g><g><path d="M58.181339013500214,14.56213C59.490309013500216,14.54228,60.755369013500214,15.025089999999999,61.703369013500215,15.91134L64.32466901350021,13.34188C62.664869013500216,11.814101,60.46186901350021,10.9741514,58.181339013500214,11.000606519C54.70986901350021,11.000606519,51.53528901350021,12.9186,49.976669013500214,15.96094L53.02642901350021,18.27907C53.75175901350021,16.14613,55.786059013500214,14.56213,58.181339013500214,14.56213Z" fill="#EA4335" fill-opacity="1" style="mix-blend-mode:passthrough"/></g></g></g></g></svg>