<svg xmlns="http://www.w3.org/2000/svg" xmlns:xlink="http://www.w3.org/1999/xlink" fill="none" version="1.1" width="115" height="40" viewBox="0 0 115 40"><defs><clipPath id="master_svg0_15_2195"><rect x="49" y="11" width="18" height="18" rx="0"/></clipPath></defs><g><g><rect x="0" y="0" width="115" height="40" rx="6" fill="#FFFFFF" fill-opacity="1"/><rect x="0.5" y="0.5" width="114" height="39" rx="5.5" fill-opacity="0" stroke-opacity="1" stroke="#EEEEEE" fill="none" stroke-width="1"/></g><g><g></g><g><g clip-path="url(#master_svg0_15_2195)"><g><path d="M64.3372,26.3373L61.67,26.3373L61.67,22.1605C61.67,21.1645,61.6523,19.88236,60.2829,19.88236C58.893789999999996,19.88236,58.68121,20.9675,58.68121,22.088L58.68121,26.337L56.014179999999996,26.337L56.014179999999996,17.74783L58.57456,17.74783L58.57456,18.92161L58.61047,18.92161C59.1317,18.03027,60.1046,17.495910000000002,61.1367,17.53423C63.8398,17.53423,64.3382,19.312260000000002,64.3382,21.6254L64.3372,26.3373ZM53.00481,16.57373C52.15573,16.57373,51.45673,15.87513,51.45673,15.02605C51.45673,14.17698,52.15542,13.47829,53.00449,13.47829C53.85348,13.47829,54.552080000000004,14.17682,54.55224,15.025739999999999C54.55224,15.87464,53.85373,16.57365,53.00481,16.57373ZM54.33832,26.3373L51.66848,26.3373L51.66848,17.74783L54.33832,17.74783L54.33832,26.3373ZM65.66669999999999,11.00151645L50.3282,11.00151645C49.608186,10.99338478,49.00877577,11.578865,49,12.29888L49,27.7011C49.00845373,28.4215,49.607783,29.0076,50.3282,28.9999L65.66669999999999,28.9999C66.3889,29.009,66.9904,28.4229,67,27.7011L67,12.29784C66.9904,11.576288,66.38810000000001,10.99088831,65.66669999999999,11.000388681L65.66669999999999,11.00151645Z" fill="#0A66C2" fill-opacity="1" style="mix-blend-mode:passthrough"/></g></g></g></g></g></svg>