<svg xmlns="http://www.w3.org/2000/svg" xmlns:xlink="http://www.w3.org/1999/xlink" fill="none" version="1.1" width="115" height="40" viewBox="0 0 115 40"><g><g><rect x="0" y="0" width="115" height="40" rx="6" fill="#FFFFFF" fill-opacity="1"/><rect x="0.5" y="0.5" width="114" height="39" rx="5.5" fill-opacity="0" stroke-opacity="1" stroke="#EEEEEE" fill="none" stroke-width="1"/></g><g><g></g><g><path d="M68,14.65763C67.2647,14.93833,66.4744,15.12799,65.644,15.21372C66.49119999999999,14.77674,67.1414,14.08334,67.4479,13.257938C66.65520000000001,13.663053,65.77680000000001,13.957406,64.8423,14.1152C64.0937,13.429391,63.0278,13,61.8475,13C59.582,13,57.7446,14.58253,57.7446,16.53527C57.7446,16.81142,57.7816,17.07998,57.850300000000004,17.33943C54.43886,17.191499999999998,51.41673,15.78422,49.39259,13.646363000000001C49.04026,14.16983,48.837668,14.77674,48.837668,15.4231C48.837668,16.649070000000002,49.56259,17.731650000000002,50.66274,18.36512C49.98979,18.34615,49.35736,18.18759,48.804196,17.92283L48.804196,17.96835C48.804196,19.68062,50.21793,21.10915,52.09585,21.43384C51.75057,21.51426,51.38855,21.556739999999998,51.01508,21.556739999999998C50.75083,21.556739999999998,50.49274,21.5355,50.24259,21.49454C50.764920000000004,22.898020000000002,52.27995,23.9207,54.07595,23.948C52.67103,24.8963,50.90145,25.4615,48.979481,25.4615C48.64829,25.4615,48.321502,25.444699999999997,48,25.4122C49.81627,26.4158,51.97254,27,54.28911,27C61.8377,27,65.9646,21.61516,65.9646,16.94494C65.9646,16.793210000000002,65.96000000000001,16.63996,65.9522,16.48824C66.7538,15.98905,67.4496,15.36772,67.9983,14.65991L68,14.65763Z" fill="#1DA1F2" fill-opacity="1" style="mix-blend-mode:passthrough"/></g></g></g></svg>